<svg xmlns="http://www.w3.org/2000/svg" width="256" height="256" fill="none"><g clip-path="url(#a)"><rect width="256" height="256" fill="url(#b)" rx="21.333"/><path fill="#000" d="M120.376 148.739H82.254L135.624 42v60.994h38.121l-53.369 106.739v-60.994Z"/><path fill="#1447E6" d="M120.376 149.739v-2l-21.846.05-16.276.038.817 1.321 53.125-106.862-1.211-.286.139 60.994-.001.499.501.001 38.121-.087-.369-.598-53.125 106.862.264.062-.089-39.148-.05-21.846-.05 21.846-.09 39.148.001.592.264-.529 53.614-106.617.297-.599-.667.001-38.121-.087.5.5.14-60.994-.002-2.71-1.21 2.424-53.614 106.617-.658 1.324 1.474-.003 16.276.037 21.846.05Zm0-2v2-1l.002-1h-.002Z"/></g><defs><linearGradient id="b" x1="128" x2="128" y1="0" y2="256" gradientUnits="userSpaceOnUse"><stop stop-color="#fff"/><stop offset="1" stop-color="#F0F0F0"/></linearGradient><clipPath id="a"><path fill="#fff" d="M0 0h256v256H0z"/></clipPath></defs></svg>
