<svg xmlns="http://www.w3.org/2000/svg" xmlns:xlink="http://www.w3.org/1999/xlink" fill="none" viewBox="0 0 512 512"><g clip-path="url(#a)"><use xlink:href="#reuse-0"/><path fill="#000" d="M240.8 297.5h-76.3L271.2 84v122h76.3L240.8 419.5z"/><path fill="#1447e6" d="M240.8 299.5v-4H197l-32.6.2 1.6 2.6L272.4 84.6 270 84l.2 122v1h1l76.3-.2-.7-1.2-106.3 213.7.5.2-.1-78.3-.1-43.7-.1 43.7-.2 78.3v1.1l.5-1 107.2-213.2.6-1.2h-1.3l-76.3-.2 1 1 .3-122v-5.4l-2.4 4.8-107.2 213.3-1.3 2.6H197zm0-4v4-4"/><g clip-path="url(#b)" opacity=".1"><path fill="#ddae6e" fill-rule="evenodd" d="M126 7.1c-1.4.4-3 1.7-3.9 3.5-.4.8-1.1 1.9-1.6 2.4-.8.8-1 .7-2.2-.6Q116 10 115 13.8c-.3 1.5-2.4 3.8-4.5 4.8-2.1 1.1-2.9 3-4.2 11-1.5 8.5-2 10.6-3.7 13.7-1.5 2.7-3.5 3.8-9.1 5.2-5.8 1.5-7.7 2.8-10.1 6.6a10 10 0 0 1-3.5 3.7c-1.7.7-2.7 2.6-2.8 4.8 0 .8-.7 3.6-1.6 6.1-1.5 4.2-1.6 5-1.3 8.7.2 2.4.1 5-.2 6.2a9 9 0 0 0 0 4.8q.5 2.7 0 4.3c-.6 1.5-.5 2 .4 3.3 1.5 2 1.4 3-.3 5.6-3 4.6-5.5 6.2-9.6 6.2q-2.6 0-2.6 4c0 1.9.1 2 1.8 2 1 0 3.7 1 6.5 2.4 8.6 4.5 13.5 6.4 15.8 6 6.8-1 6.3-1 9.5 1 5 3.4 10 3.6 22.8 1.2 2.2-.5 5.3-1.5 7-2.5q2.9-1.6 7.7-2.5c6.3-1 8-2 13-7.2a19 19 0 0 1 5.9-4.7q3.6-.8.4-3.6c-5.2-4.3-5-3.9-5-7 0-4.5.8-5.1 5.7-5.1 3.5 0 4.3-.2 6.7-1.7 2.6-1.6 2.7-1.7 3-4.8.5-4.5 2.3-9 4.9-12q3.5-4 2.2-6.5-1.4-3.3.7-4.8 1.3-.9 1.4-1.5c0-.3-1.2-1.8-2.7-3.4s-3.2-4-3.9-5.5c-1.7-4-3-5.1-5.6-5.1q-5.9.2-2-5.5 4.8-6.8-4-8.6-5.9-1.2-7.7-7.5c-.5-1.7-1.5-4.2-2.3-5.5-1.2-2.1-1.3-2.6-.7-4.4.9-3 .8-3.2-2.5-4.1-1.8-.5-4.7-1.7-6.4-2.7q-5.2-2.7-8.2-2" clip-rule="evenodd"/><path fill="#463044" fill-rule="evenodd" d="M431.8 180.4c-1.6.4-3 1.8-3 2.8 0 .8-2.2 2.9-4 3.8-.6.3-2.2.6-3.5.6s-2.7.3-3.2.6c-1 .6-2.3 4-2 4.9l.3 1.6c.3 1.3 2.5 4 3.3 4q1-.1 0-1.2-.3-.5 0-.5c1.6.3 2.7-.2 4.6-2q3.4-3.4 5.6-1.2c1.4 1.1.8 2-2.4 4.2q-4.1 2.8-5.5 6.6c-1.8 4.9-2.4 10-1.6 14.4q2.1 12.2 18.4 16.5c3.6 1 4.3 1.3 4.9 2.3q.6 1 1 1.1 1 0 .2.3-.6.3-.2 2t.5 1.6q.3 0 .3 1 .1 3 .8 3.3.3.3 0 .3-.5.1-1.2 1.6c-1 2.2-2.6 3-7 3.3q-3.7.3-4.3.9c-.5.4-.3.5 1.5.5 1.2 0 2.8-.2 3.5-.4 2.4-.5.6.8-2 1.6q-2.2.7-3 1.6-1.3 1.9.3.9 1-.6 1.7-.6c1 0 4.3-1.7 6.3-3 1.5-1 1.8-.3.4 1.1-1 1.2-1.5 2.3-.9 2.3.2 0 1.3-1 2.4-2.3 2-2.2 3-2.6 4.6-1.8q.7.4 1.6.3 1.2 0-.1-.6l-2.5-1-1.5-.7 1-2.2q1-2.3 3.5-4.7c2.8-3 3-2.9 3.3 1.1.1 1.4.5 2.9.7 3.3.4.6.3 1.3-.4 3.6-.5 1.6-1.2 3.2-1.6 3.5-1.2 1-4.2 2.2-6.7 2.5-3 .3-5 1-5 1.4 0 .6 2.7.5 4.9-.2 1-.3 2-.4 2.1-.2.3.4-.3.7-3.5 2-2.4 1-3.3 1.7-3.7 3.2-.3.9-.3.9.8.3l2.6-1.2q3.7-1.7 6.2-3.6 1.4-1 1.7-1c.5.5-1 2.5-2.3 3.4-2.3 1.5-2.7 2-3 3q-.6 1 .9.6c1.5-.4 1.9-.8 4.6-4.3l2.8-3.6c.5-.5.7-.5 4.8.3l1.8.4-1-.7a7 7 0 0 0-2.7-1c-3-.5-3-.8-2-4.5q1.1-3.2 2.2-4.4c1.7-1.8 2.1-2.9 2.7-6.1.4-2.7.5-3 1.9-3.6.7-.4 3-1 5.1-1.1q3.6-.4 5.5-1.3c2-1 4.3-3.5 5.6-6.4a18 18 0 0 1 2-3.3c.6-.7 1-1.7 1-2.1s.6-2 1.3-3.3c1.8-3.9 2.2-6.5 1.4-9.4-2-6.8-9.6-8.7-11.5-2.8q-.5 1.2-.9 1.3c-.2 0-1.2-.5-2.1-1.2-6.8-4.6-13.7-6-22.5-4.5-7.3 1.2-8.2 1.1-9-.6-.6-.9.1-2.8 1.2-3.6a20 20 0 0 0 4.3-10.9c0-3.3-3.4-8.4-5-7.4q-.4.3-.1-.2.2-.3-1.8-1a8 8 0 0 0-5.4-.2m7.3 77q-1 1-1 2t.2.1 1.5-1.3 1.3-1.2q-.1-1.4-2 .4" clip-rule="evenodd"/><path fill="#6ccd13" fill-rule="evenodd" d="M103.5 351.8a65 65 0 0 0-5.4 11.2c-1 2.7-1 3-.6 3.9.4.7.5 3.1.5 10.4a108 108 0 0 0 .5 11.2q-.1 1.7.2.5l.2-1q0-.2.2-.6l2.5-4.6c1.1-2.3 2.5-4.7 3-5.4l.9-1.2-.3-8.4a357 357 0 0 1-.3-17.8q-.3.2-1.4 1.8m-2 12q0 .1-.6.6-.8.7-.1-.1.7-1 .7-.5m16.5 2.3a51 51 0 0 0-16.5 21.2l-.8 2 1 1.1 1 1.2-1-1q-1.3-1.2-1.4-.6l-.8 2.7c-.7 2-.7 2.5-.4 6.8l.4 7c0 2.3 0 2.5-1.1 3.6-1 1-1 1.3-.7 2q.5.7.3 4.7l-.2 4 2.2-4.5c1.2-2.4 3.3-6.5 4.8-9a72 72 0 0 0 9.8-24.9 91 91 0 0 1 5.4-17.7zm-33.6-.6c-1.2.3-2.8 1.5-2.8 2 0 .7 2.2 1.5 5.7 2 4 .6 5.4.5 7.1-.6 3-1.8-.3-3.8-6.2-3.8-1.4 0-3.2.2-3.8.4m-2.7 5.2c0 .2 0 3.6.4 7.6.5 5.8.5 9.6.4 18.6-.2 10.9-.2 11.4.4 12q1.5 1.5 7.6 1.6c3.3 0 4-.1 5.4-.8q1.4-.8 1.7-1.3l-.4-8.9-.8-11.3-.2-3L89 378c-4-4-5.8-6-4-4.3s3.3 3 3.5 2.9q.3-.1.2.2c0 .3 1.5 2.1 3.6 4.3l3.8 3.7v-6.5c-.2-8.8 0-8-1.7-7q-1.3.9-1.2.7 0-.3-2-.2c-2 0-7.2-.6-8.6-1.2q-.6-.1-.9.2m9.7 3.3-1.2 1.1-1.1 1 1-1.1q1.4-1.5 1.3-1m-3.5 3.5-.8.8-.8.6.7-.8q.9-1 .9-.6m-2.5 2.4-1.5 1.5-1.5 1.4 1.4-1.5q1.8-2 1.6-1.4m-2.8 32.4c-1.3 1.7-1.3 5.7.2 12.8l.4 5.5.2 4.6 1.1-1q1.5-1.4 0 .4l-1.2 1.2-.4 7.5-.6 11c-.6 5 0 6 4.7 7.4 3.7 1 7.3.3 9-2 .7-1 .7-1.2.3-8.8l-.4-10.3v-2.4l-3.7-3.8-6.6-6.6-2.8-3 2.8 2.8c1.6 1.5 3 2.6 3.1 2.5q.3-.2.1 0c-.1.3 1.5 2 3.5 4L96 438l-.2-5.8c-.2-3.6-.1-8.3.1-12.2q.5-6.3.1-7c-.3-.5-1-.6-5.5-.6-3 0-5.7-.3-6.2-.5-.9-.4-1-.3-1.7.5M61 420.4c0 3.4 2.7 14.5 4.4 18.3q3.2 7 5.2 7.7c1.3.5 1.3.4 3-1l1.6-1.6-1.6 1.6-1.5 1.7 2.4 1.2c1.3.7 3.2 2 4.2 2.7l1.8 1.3.2-2.3c.4-4.3.3-5.6-.7-7.5-1.1-2.3-1-2.3-2-1.5l-.7.7.8-.9.7-.9-2.2-3.6a51 51 0 0 0-11-13L61 419zm34.3 3.4-1.8 1.8-1.9 1.7 1.8-1.8c1.6-1.7 2-2 2-1.7m-3.8 3.8-1 1-1 .8.9-1q1.1-1.2 1-.8m-3.5 3.5-1.2 1.2-1.1 1 1-1.1q1.4-1.6 1.3-1M77 442l-1 1-1 .8 1-1q1-1.2 1-.8m-18.3 3.9c1 1 2.3 2.7 3 3.8q1.4 2.2 2.3 2 .8-.1 3.4 2.5c2.6 2.6 3 3.3 2.1 4.1-.9 1 6.3 6.5 9.8 7.6q.9.4 1-1.2c.1-.8.4-2 .7-2.4.4-.8.4-1.1-.2-2.2q-.6-1.3-.6-3.3v-2.2l-2-1.6c-3.6-3-12.7-7-19.2-8.5l-2-.4zM64 453c.6 1.2 4 5 4.5 5q1.7 0-1.5-3.2c-2.3-2.3-3.8-3.2-3-1.8m18.5 10.5q-.4.9-.3 8.5l.4 14.8v5.4l2.9-2.9 2.9-2.9-3-3-3-3.1 3.1 3 3 3 4-4 3.8-3.8-.2-6.5a73 73 0 0 0-.6-7.7l-.3-1.3-1.2.5c-1.8.7-6.1.6-8.5-.2-2.5-1-2.5-1-3 .2m10 19.2-3.8 3.7 4 4 4 4-.1-5.7c0-3-.2-6.5-.3-7.6l-.2-2zm-7 7c-3.4 3.4-3.2 2.8-3.3 12.7 0 7.6 0 7.4 2.3 8.7 3.3 1.6 9.1 1 11.6-1.4l1.2-1-.2-6.9-.2-6.8-4-4.1-4.3-4.1z" clip-rule="evenodd"/><circle cx="400.5" cy="430.5" r="53.5" fill="#c6c3c2"/><circle cx="66" cy="257.6" r="21.8" fill="#013ce0" fill-opacity=".1" transform="rotate(15 66 257.6)"/><path fill="#b5c09a" d="M426-6.5 501.3-50l43.5 75.3-75.3 43.5z"/><path fill="#22e0a8" d="m137 468.5 75.3-43.5 43.5 75.3-75.3 43.5z"/></g></g><defs><clipPath id="a"><use xlink:href="#reuse-0"/></clipPath><clipPath id="b"><path fill="#fff" d="M39.4-50h505.4v593.8H39.4z"/></clipPath><path id="reuse-0" fill="#fff" d="M0 0h512v512H0z"/></defs></svg>
